# xmcd
#
# Track frame offsets: 
#        150
#        22829
#        47742
#        75234
#        95083
#        109240
#        124131
#        140750
#        156240
#        173393
#        190347
#        213300
#        233800
#        251976
#        270718
#        294714
#        315505
#        336319
#
# Disc length: 4743 seconds
#
# Revision: 0
# Processed by: cddbd v1.5.2PL0 Copyright (c) Steve Scherf et al.
# Submitted via: ExactAudioCopy v1.0b1
#
DISCID=04128512
DTITLE=Peoples Potential Unlimited - Peoples Potential Family Album
DYEAR=2010
DGENRE=Funk
TTITLE0=Minority Band - Live
TTITLE1=Minority Band - Tasty Tune
TTITLE2=Sir Bentley - Street Shuffle
TTITLE3=T.M.S. - Get The Feelin'
TTITLE4=Ballplayers - Universal Language
TTITLE5=Crunch - Cruise
TTITLE6=Crunch - Funky Beat
TTITLE7=Satellite Band - Rejuvenate The Fonk
TTITLE8=Midnight Express - Danger Zone
TTITLE9=Checker Kabb - By My Side
TTITLE10=Mix-O-Rap - All Party People
TTITLE11=Cardell Funk Machine - Shoot Your Shot
TTITLE12=J.P's Force - Time To Throw Down
TTITLE13=Initials - Message In The Music
TTITLE14=George Smallwood - You Know I Love You
TTITLE15=Saavy - Miss Mean
TTITLE16=Caprice - Candy Man
TTITLE17=Jim Bennett - Hold That Groove
EXTD=
EXTT0=
EXTT1=
EXTT2=
EXTT3=
EXTT4=
EXTT5=
EXTT6=
EXTT7=
EXTT8=
EXTT9=
EXTT10=
EXTT11=
EXTT12=
EXTT13=
EXTT14=
EXTT15=
EXTT16=
EXTT17=
PLAYORDER=
